<mxfile host="app.diagrams.net" modified="2023-08-08T09:17:44.960Z" agent="Mozilla/5.0 (Macintosh; Intel Mac OS X 10_15_7) AppleWebKit/537.36 (KHTML, like Gecko) Chrome/115.0.0.0 Safari/537.36" version="21.6.6" etag="BGvM1yTx2-6VQlK_p1jr" type="github">
  <diagram name="Page-1" id="lMGnR26mEWe3wIPBHRo8">
    <mxGraphModel>
      <root>
        <mxCell id="0" />
        <mxCell id="1" parent="0" />
      </root>
    </mxGraphModel>
  </diagram>
</mxfile>
